<svg width="50" height="50" viewBox="0 0 50 50" fill="none" xmlns="http://www.w3.org/2000/svg">
<g clip-path="url(#clip0_98_21)">
<path d="M25.8143 0.0416504C28.5434 0 31.2518 0.0208008 33.9601 0C34.1268 3.1875 35.2726 6.4375 37.606 8.6875C39.9393 11 43.231 12.0625 46.4393 12.4167V20.8125C43.4393 20.7083 40.4185 20.0833 37.6893 18.7917C36.5018 18.25 35.3977 17.5625 34.3143 16.8542C34.2935 22.9375 34.3352 29.0208 34.2727 35.0833C34.106 38 33.1477 40.8958 31.4602 43.2916C28.731 47.2916 24.0018 49.8958 19.1477 49.9792C16.1685 50.1458 13.1893 49.3333 10.6477 47.8333C6.43935 45.3541 3.48104 40.8125 3.04354 35.9375C3.00189 34.8958 2.98104 33.8541 3.0227 32.8333C3.3977 28.875 5.35604 25.0833 8.3977 22.5C11.856 19.5 16.6893 18.0625 21.2102 18.9166C21.2518 22 21.1268 25.0833 21.1268 28.1666C19.0643 27.5 16.6477 27.6875 14.8352 28.9375C13.5227 29.7916 12.5227 31.1041 12.0018 32.5833C11.5643 33.6458 11.6893 34.8125 11.7102 35.9375C12.2102 39.3541 15.5018 42.2291 19.0018 41.9166C21.3352 41.8958 23.5643 40.5416 24.7727 38.5624C25.1685 37.8749 25.606 37.1666 25.6268 36.3541C25.8352 32.625 25.7518 28.9166 25.7727 25.1875C25.7935 16.7916 25.7518 8.4166 25.8143 0.0416016L25.8143 0.0416504Z" fill="#F3F2F2"/>
</g>
<defs>
<clipPath id="clip0_98_21">
<rect width="50" height="50" fill="white"/>
</clipPath>
</defs>
</svg>
